# xmcd
#
# Track frame offsets: 
#        150
#        6076
#        20313
#        23729
#        30923
#        58622
#        73402
#        90847
#        114256
#        124707
#        151822
#        161894
#        178117
#        207200
#        239091
#        245075
#        263091
#
# Disc length: 3680 seconds
#
# Revision: 0
# Processed by: cddbd v1.5.2PL0 Copyright (c) Steve Scherf et al.
# Submitted via: ExactAudioCopy v1.0b6
#
DISCID=d90e5e11
DTITLE=Alison Balsom and Tom Poster - Légende (2016)
DYEAR=2016
DGENRE=Classical Trumpet
TTITLE0=Français: Sonatine - 1. Prelude
TTITLE1=Français: Sonatine - 2a. Sarabande
TTITLE2=Français: Sonatine - 2b. Sarabande, Cadenza
TTITLE3=Français: Sonatine - 3. Gigue
TTITLE4=Enescu: Légende
TTITLE5=Goedicke-Dokshitzer: Concert Etude, Op. 49
TTITLE6=Davies: Farewell To Stromness
TTITLE7=Hindemith: Trumpet Sonata - 1. Mit Kraft
TTITLE8=Hindemith: Trumpet Sonata - 2. Mässig Bewegt
TTITLE9=Hindemith: Trumpet Sonata - 3. Trauermusik
TTITLE10=Hindemith: Trumpet Sonata - 3A. Alle Menschen Müssen Sterben
TTITLE11=Ravel: Sonatine, M 40 - 2. Mouvement De Menuet
TTITLE12=The Thoughts Of Dr. May
TTITLE13=Martinů: Sonatine
TTITLE14=Bernstein: Rondo For Lifey
TTITLE15=Gerschwin: Someone To Watch Over Me
TTITLE16=Kern: The Way You Look Tonight
EXTD=
EXTT0=
EXTT1=
EXTT2=
EXTT3=
EXTT4=
EXTT5=
EXTT6=
EXTT7=
EXTT8=
EXTT9=
EXTT10=
EXTT11=
EXTT12=
EXTT13=
EXTT14=
EXTT15=
EXTT16=
PLAYORDER=
